HIERARCHY
ROOT Hips
{
    OFFSET 0.0 0.0 0.0
    CHANNELS 6 Xposition Yposition Zposition Zrotation Xrotation Yrotation
    JOINT LeftHipJoint
    {
        OFFSET 0.1 0.0 0.0
        CHANNELS 3 Zrotation Xrotation Yrotation
        JOINT LeftUpLeg
        {
            OFFSET 0.11917220056056976 0.0 0.0
            CHANNELS 3 Zrotation Xrotation Yrotation
            JOINT LeftLeg
            {
                OFFSET 0.0 0.0 -0.4279662072658539
                CHANNELS 3 Zrotation Xrotation Yrotation
                JOINT LeftFoot
                {
                    OFFSET 0.0 0.0 -0.44216209650039673
                    CHANNELS 3 Zrotation Xrotation Yrotation
                    End Site
                    {
                        OFFSET 0.0 -0.1 0.0
                    }
                }
            }
        }
    }
    JOINT LowerBack
    {
        OFFSET 0.0 0.0 0.1
        CHANNELS 3 Zrotation Xrotation Yrotation
        JOINT Spine
        {
            OFFSET 0.0 0.0 0.21818037331104279
            CHANNELS 3 Zrotation Xrotation Yrotation
            JOINT Spine1
            {
                OFFSET 0.0 0.0 0.2575209140777588
                CHANNELS 3 Zrotation Xrotation Yrotation
                JOINT LeftShoulder
                {
                    OFFSET 0.1 0.0 0.0
                    CHANNELS 3 Zrotation Xrotation Yrotation
                    JOINT LeftArm
                    {
                        OFFSET 0.15611585974693298 0.0 0.0
                        CHANNELS 3 Zrotation Xrotation Yrotation
                        JOINT LeftForeArm
                        {
                            OFFSET 0.29298532009124756 0.0 0.0
                            CHANNELS 3 Zrotation Xrotation Yrotation
                            JOINT LeftHand
                            {
                                OFFSET 0.20036311447620392 0.0 0.0
                                CHANNELS 3 Zrotation Xrotation Yrotation
                                End Site
                                {
                                    OFFSET 0.1 0.0 0.0
                                }
                            }
                        }
                    }
                }
                JOINT Neck
                {
                    OFFSET 0.0 0.0 0.1
                    CHANNELS 3 Zrotation Xrotation Yrotation
                    JOINT Neck1
                    {
                        OFFSET 0.0 0.0 0.1127258688211441
                        CHANNELS 3 Zrotation Xrotation Yrotation
                        End Site
                        {
                            OFFSET 0.0 0.0 0.0735974982380867
                        }
                    }
                }
                JOINT RightShoulder
                {
                    OFFSET -0.1 0.0 0.0
                    CHANNELS 3 Zrotation Xrotation Yrotation
                    JOINT RightArm
                    {
                        OFFSET -0.15611585974693298 0.0 0.0
                        CHANNELS 3 Zrotation Xrotation Yrotation
                        JOINT RightForeArm
                        {
                            OFFSET -0.29298532009124756 0.0 0.0
                            CHANNELS 3 Zrotation Xrotation Yrotation
                            JOINT RightHand
                            {
                                OFFSET -0.20036311447620392 0.0 0.0
                                CHANNELS 3 Zrotation Xrotation Yrotation
                                End Site
                                {
                                    OFFSET -0.1 0.0 0.0
                                }
                            }
                        }
                    }
                }
            }
        }
    }
    JOINT RightHipJoint
    {
        OFFSET -0.1 0.0 0.0
        CHANNELS 3 Zrotation Xrotation Yrotation
        JOINT RightUpLeg
        {
            OFFSET -0.11917220056056976 0.0 0.0
            CHANNELS 3 Zrotation Xrotation Yrotation
            JOINT RightLeg
            {
                OFFSET 0.0 0.0 -0.4279662072658539
                CHANNELS 3 Zrotation Xrotation Yrotation
                JOINT RightFoot
                {
                    OFFSET 0.0 0.0 -0.44216209650039673
                    CHANNELS 3 Zrotation Xrotation Yrotation
                    End Site
                    {
                        OFFSET 0.0 -0.1 0.0
                    }
                }
            }
        }
    }
}
MOTION
Frames: 7
Frame Time: 0.03333333333333333
-0.0 -0.0 0.0 5.618069346016229e-07 66.7400087689019 -0.35806128022297484 4.138100295858096e-33 6.361206425753006e-15 -7.454425034680117e-17 170.06413693136304 -58.377030438571765 159.70030961823016 -27.643505388632413 77.58496421803308 24.282216217854252 0.0 0.0 3.975693351829395e-16 4.138100295858096e-33 6.361206425753006e-15 -7.454425034680117e-17 -0.06767274241938005 10.702360749733154 -12.084494035579757 12.305125757947968 9.95607411165929e-07 -1.1469272482709793e-06 3.975693351829397e-16 6.311413196029166e-15 -1.5902773407317584e-15 -9.498580302574648 -4.645301191222384 79.68871207217975 -108.14315898855281 2.3827060162609738e-07 1.9580935477030754e-06 3.1805546814635168e-15 -3.1805546814635168e-15 -2.3854160110976376e-15 3.975693351829397e-16 6.311413196029166e-15 -1.5902773407317584e-15 100.8740005842508 -31.81910885352965 -48.643082725703145 3.975693351829397e-16 6.311413196029166e-15 -1.5902773407317584e-15 27.723525499806968 14.654914071051309 -50.38615300738461 131.4253421876068 -2.236316377252465e-06 1.9860047297628047e-06 3.1805546814635164e-15 6.361109362927033e-15 -1.7655625192200634e-31 4.138100295858096e-33 6.361206425753006e-15 -7.454425034680117e-17 -166.92639236919752 -66.06325483626779 -170.59412224200827 -19.608251887015843 68.61979245202726 24.2962625315013 0.0 0.0 1.987846675914698e-16
-0.0 -0.0 0.0 2.826933984915516e-06 67.597791276115 2.208748323867602 0.0 0.0 -9.93923337957349e-17 177.0075518166296 -60.10836368904337 165.843095752793 -26.82639237534195 75.16943358624192 25.702858485621988 0.0 0.0 0.0 0.0 0.0 -9.93923337957349e-17 0.5116433889030716 13.035791569648186 -12.081086377645201 11.842269185338708 -1.00922808697629e-06 -3.0675793847621644e-07 -3.975693351829397e-16 2.069018577211012e-33 -5.963540027744096e-16 -8.08515947702002 -7.003963235711562 78.03427704802569 -105.08515308376786 1.8714247624970197e-06 -2.7654100592048744e-06 0.0 0.0 3.975693351829395e-16 -3.975693351829397e-16 2.069018577211012e-33 -5.963540027744096e-16 107.13073989368279 -19.945525878653932 -39.66343123332491 -3.975693351829397e-16 2.069018577211012e-33 -5.963540027744096e-16 29.028252143339575 14.443451037224206 -52.853723126128514 127.94722010467336 -5.533565415359268e-06 -5.357826926564065e-07 -3.1805546814635168e-15 2.2069531490250793e-32 -7.951386703658792e-16 0.0 0.0 -9.93923337957349e-17 -163.93227727798654 -67.25646773199225 -166.59750439050393 -16.84247197494592 65.58407191175313 20.397944584763163 0.0 0.0 -1.987846675914698e-16
-0.0 -0.0 0.0 -7.358169924393318e-08 67.54032767160253 2.25034896347974 1.987846675914698e-16 6.358003352495917e-15 1.987846675914698e-16 177.07102156463583 -60.01586521667177 165.91540755962552 -27.10568071159165 75.32962148959976 25.94421962279679 0.0 0.0 0.0 1.987846675914698e-16 6.358003352495917e-15 1.987846675914698e-16 0.5227746336526298 13.071648425733875 -12.108032087122316 11.788362372823348 3.4302228300064526e-07 -5.450559183912274e-07 -7.951386703658791e-16 4.9696166897867425e-17 1.9878466759146976e-15 -7.963318832467014 -7.041738200667802 78.1116911977942 -105.03606454614342 9.971790296137482e-07 -2.4834123502840037e-06 0.0 0.0 -4.770832022195275e-15 -7.951386703658791e-16 4.9696166897867425e-17 1.9878466759146976e-15 107.02622831647864 -20.275844944381824 -39.92413098286936 -7.951386703658791e-16 4.9696166897867425e-17 1.9878466759146976e-15 28.770152929676758 14.144471937719846 -52.88703129372084 127.83485272953178 -2.404524910518909e-07 -3.05928147495341e-06 -1.3241718894150476e-31 6.3611093629270335e-15 2.3854160110976376e-15 1.987846675914698e-16 6.358003352495917e-15 1.987846675914698e-16 -163.8822962104146 -67.14863401996152 -166.54962141215114 -17.087480508938203 65.80844414702607 20.66229620303967 -7.951386703658792e-16 -3.1805546814635168e-15 -2.2069531490250793e-32
-0.0 -0.0 0.0 1.2405770360030095e-06 67.47359523954354 2.296072408548991 -3.975693351829396e-16 3.1060104311167152e-18 9.93923337957349e-17 177.21148953279328 -59.94540758849396 166.05445360004322 -27.39846913852238 75.47285120173608 26.22988471779632 -7.951386703658791e-16 -3.1805546814635164e-15 -2.2069531490250793e-32 -3.975693351829396e-16 3.1060104311167152e-18 9.93923337957349e-17 0.5348807710033586 13.106480422726493 -12.140211337291253 11.74172112077488 1.6134205058986573e-06 -4.167751147914409e-07 -1.5902773407317584e-15 6.3611093629270335e-15 -5.963540027744093e-16 -7.843407773669184 -7.078968304005011 78.19122919587352 -104.97719206241959 -1.228493672184367e-06 -6.4443879482076234e-06 2.2069531490250793e-31 3.1805546814635168e-15 -7.951386703658792e-15 -1.5902773407317584e-15 6.3611093629270335e-15 -5.963540027744093e-16 106.88644010448998 -20.537582045055142 -40.18892002575695 -1.5902773407317584e-15 6.3611093629270335e-15 -5.963540027744093e-16 28.470536248505066 13.84600716298808 -52.91438659971911 127.73603908523279 2.8859487795321372e-06 -6.440420759950847e-07 1.5902773407317584e-15 2.2069531490250793e-32 1.5902773407317584e-15 -3.975693351829396e-16 3.1060104311167152e-18 9.93923337957349e-17 -163.90254958067422 -67.05942038646864 -166.5659372518398 -17.335549242789913 66.02814544485867 20.89772822918937 0.0 0.0 1.987846675914698e-16
-0.0 -0.0 0.0 -2.843887701728719e-07 67.40827658287745 2.3329588778359165 1.1034765745125397e-32 -6.3611093629270335e-15 1.987846675914698e-16 177.2686929239795 -59.87503737492461 166.11830218452783 -27.63422827714289 75.6179718094919 26.4277691418338 0.0 0.0 -3.975693351829395e-16 1.1034765745125397e-32 -6.3611093629270335e-15 1.987846675914698e-16 0.5448706415552078 13.138782730381248 -12.171995005802767 11.7008750572159 2.920332296038306e-06 -4.33195994326419e-07 -2.586273221513765e-34 -4.969616689786745e-17 -5.963540027744094e-16 -7.73264424615826 -7.119920782243263 78.27824619845501 -104.9017311331903 -3.0347815512005895e-06 -6.440394281390894e-07 0.0 0.0 6.7586786981099735e-15 -2.586273221513765e-34 -4.969616689786745e-17 -5.963540027744094e-16 106.73938283270364 -20.798950131409583 -40.476563492473076 -2.586273221513765e-34 -4.969616689786745e-17 -5.963540027744094e-16 28.154211423925 13.543887939384756 -52.93864450023464 127.66550624655224 4.1502777268667245e-06 2.3523269958667435e-06 -3.1805546814635168e-15 -4.4139062980501586e-32 1.5902773407317584e-15 1.1034765745125397e-32 -6.3611093629270335e-15 1.987846675914698e-16 -163.85480162132296 -66.97234310756053 -166.52280847364486 -17.59069156035866 66.2329413287074 21.173858137352642 7.951386703658792e-16 0.0 0.0
-0.0 -0.0 0.0 1.0020633711213136e-08 67.34236631588088 2.3704091052436382 5.517382872562698e-33 6.361109362927033e-15 -9.939233379573489e-17 177.33572151273123 -59.811842212016856 166.1920771500718 -27.87307024706369 75.7551351103838 26.632462362816042 0.0 3.1681306397390495e-15 0.0 5.517382872562698e-33 6.361109362927033e-15 -9.939233379573489e-17 0.5548125171191235 13.165917231675651 -12.206636041304842 11.663490037594276 -2.4733886233290713e-06 -1.1047483133240278e-06 -7.951386703658792e-16 6.3611093629270335e-15 -5.963540027744094e-16 -7.621328837342732 -7.164053179381255 78.36955269280666 -104.81624315088457 5.787599054972736e-07 -6.985090404484873e-07 1.5448672043175555e-31 -3.1805546814635164e-15 5.5659706925611536e-15 -7.951386703658792e-16 6.3611093629270335e-15 -5.963540027744094e-16 106.56708230166976 -21.01896520289478 -40.782142293368366 -7.951386703658792e-16 6.3611093629270335e-15 -5.963540027744094e-16 27.86269310442305 13.24549642773684 -52.986253094048564 127.64691154515384 3.112176507054146e-06 4.867656622525796e-06 4.770832022195275e-15 -6.620859447075238e-32 -1.5902773407317584e-15 5.517382872562698e-33 6.361109362927033e-15 -9.939233379573489e-17 -163.81426984021545 -66.89222801033144 -166.48866317607133 -17.8430213355686 66.43080892375913 21.447939518820718 7.951386703658794e-16 -3.1929787231879844e-15 2.2155740597634585e-32
-0.0 -0.0 0.0 -2.643240557794278e-06 67.27925043994519 2.410563654679238 0.0 0.0 -1.9878466759146977e-16 177.41760622583627 -59.75113916329211 166.28295675884914 -28.13303406542461 75.88112676012061 26.860960589089 0.0 0.0 1.987846675914698e-16 0.0 0.0 -1.9878466759146977e-16 0.5651852237801631 13.187619987660941 -12.244333474194672 11.628072122410426 1.5347848947377138e-06 -4.5831410859107045e-07 -3.9756933518293945e-16 6.311413196029165e-15 -1.9878466759146976e-15 -7.50861073091972 -7.213909185237593 78.46364959797124 -104.72310454104151 -2.318832601625433e-06 2.5257858329095894e-07 3.1805546814635168e-15 -3.1805546814635168e-15 -3.975693351829395e-16 -3.9756933518293945e-16 6.311413196029165e-15 -1.9878466759146976e-15 106.39765462998612 -21.228978866180903 -41.10710895232748 -3.9756933518293945e-16 6.311413196029165e-15 -1.9878466759146976e-15 27.636875537457747 12.953263360940262 -53.076846741830536 127.67669562290197 -4.8244868785122866e-06 -1.2425973779720314e-07 1.5902773407317584e-15 -2.2069531490250793e-32 -1.5902773407317584e-15 0.0 0.0 -1.9878466759146977e-16 -163.7805040367585 -66.81560636713483 -166.46323838796255 -18.077288293596823 66.6201647855604 21.70562125757526 2.155227684594804e-35 1.2424041724466862e-17 -1.987846675914698e-16
